<?xml version='1.0' encoding='UTF-8'?>
<svg xmlns="http://www.w3.org/2000/svg" width="1800" height="1880" viewBox="0 0 1800 1880" role="img" aria-labelledby="title desc" data-layout-revision="2026-07-19-overflow-fixed">
<title id="title">BouncyBot complete strategy overview</title>
<desc id="desc">GitHub dark-mode infographic showing BouncyBot's five-stage IBKR trading cycle, example price path, ATR defaults, position sizing, entry guards, architecture, execution, recovery, and limitations.</desc>
<defs>
  <filter id="shadow" x="-20%" y="-20%" width="140%" height="160%"><feDropShadow dx="0" dy="10" stdDeviation="14" flood-color="#010409" flood-opacity="0.36"/></filter>
  <linearGradient id="header" x1="0" y1="0" x2="1" y2="0"><stop offset="0" stop-color="#161b22"/><stop offset="1" stop-color="#0d1117"/></linearGradient>
  <style>
    .ui { font-family: -apple-system, BlinkMacSystemFont, "Segoe UI", Helvetica, Arial, sans-serif; }
    .mono { font-family: ui-monospace, SFMono-Regular, Menlo, Monaco, Consolas, "Liberation Mono", monospace; }
  </style>
</defs><rect x="0" y="0" width="1800" height="1880" rx="0" fill="#0d1117"/><rect x="0" y="0" width="1800" height="142" rx="0" fill="url(#header)"/><line x1="0" y1="141" x2="1800" y2="141" stroke="#30363d" stroke-width="1"/><rect x="54" y="35" width="42" height="50" rx="6" fill="#0f141b" stroke="#30363d" stroke-width="2"/><path d="M 66 50 H 84 M 66 61 H 84 M 66 72 H 79" fill="none" stroke="#1f6feb" stroke-width="3" stroke-linecap="round" stroke-linejoin="round"/><text x="118" y="61" class="ui" font-size="34" font-weight="700" fill="#f0f6fc" text-anchor="start">BouncyBot</text><text x="304" y="61" class="ui" font-size="25" font-weight="500" fill="#c9d1d9" text-anchor="start">- an IBKR Trading Bot</text><rect x="118" y="78" width="84" height="26" rx="14" fill="#1f6feb" stroke="#1f6feb" stroke-width="1"/><text x="160.0" y="97" class="mono" font-size="12" font-weight="700" fill="#ffffff" text-anchor="middle">v3.0.13</text><rect x="212" y="78" width="142" height="26" rx="14" fill="#0f141b" stroke="#30363d" stroke-width="1"/><text x="283.0" y="97" class="mono" font-size="12" font-weight="700" fill="#8b949e" text-anchor="middle">SOURCE-ALIGNED</text><rect x="364" y="78" width="158" height="26" rx="14" fill="#0f141b" stroke="#30363d" stroke-width="1"/><text x="443.0" y="97" class="mono" font-size="12" font-weight="700" fill="#c9d1d9" text-anchor="middle">IB GATEWAY / TWS</text><text x="560" y="99" class="ui" font-size="17" font-weight="500" fill="#8b949e" text-anchor="start">One confirmed STK / USD / SMART contract • long-only • whole shares • RTH-only order submission</text><rect x="1467" y="38" width="135" height="28" rx="14" fill="#0f141b" stroke="#238636" stroke-width="1"/><text x="1534.5" y="57" class="mono" font-size="12" font-weight="700" fill="#3fb950" text-anchor="middle">ATR ADAPTIVE</text><rect x="1612" y="38" width="134" height="28" rx="14" fill="#0f141b" stroke="#a371f7" stroke-width="1"/><text x="1679.0" y="57" class="mono" font-size="12" font-weight="700" fill="#a371f7" text-anchor="middle">AUTO-REPEAT</text><rect x="1514" y="78" width="105" height="28" rx="14" fill="#0f141b" stroke="#1f6feb" stroke-width="1"/><text x="1566.5" y="97" class="mono" font-size="12" font-weight="700" fill="#1f6feb" text-anchor="middle">WHAT-IF ON</text><rect x="1629" y="78" width="117" height="28" rx="14" fill="#0f141b" stroke="#d29922" stroke-width="1"/><text x="1687.5" y="97" class="mono" font-size="12" font-weight="700" fill="#d29922" text-anchor="middle">RTH ONLY</text><rect x="54" y="170" width="324" height="430" rx="12" fill="#161b22" stroke="#30363d" stroke-width="2" filter="url(#shadow)"/><rect x="76" y="190" width="54" height="30" rx="15" fill="#1f6feb" stroke="#1f6feb" stroke-width="1"/><text x="103" y="211" class="mono" font-size="15" font-weight="700" fill="#ffffff" text-anchor="middle">01</text><text x="146" y="211" class="mono" font-size="13" font-weight="650" fill="#8b949e" text-anchor="start" letter-spacing="1.25">TRACK DROP</text><text x="76" y="258" class="ui" font-size="28" font-weight="700" fill="#f0f6fc" text-anchor="start">Track the anchor</text><rect x="76" y="282" width="280" height="78" rx="8" fill="#0f141b" stroke="#21262d" stroke-width="1"/><line x1="76" y1="301.5" x2="356" y2="301.5" stroke="#21262d" stroke-width="1"/><line x1="76" y1="321.0" x2="356" y2="321.0" stroke="#21262d" stroke-width="1"/><line x1="76" y1="340.5" x2="356" y2="340.5" stroke="#21262d" stroke-width="1"/><line x1="122.66666666666666" y1="282" x2="122.66666666666666" y2="360" stroke="#21262d" stroke-width="1"/><line x1="169.33333333333331" y1="282" x2="169.33333333333331" y2="360" stroke="#21262d" stroke-width="1"/><line x1="216.0" y1="282" x2="216.0" y2="360" stroke="#21262d" stroke-width="1"/><line x1="262.66666666666663" y1="282" x2="262.66666666666663" y2="360" stroke="#21262d" stroke-width="1"/><line x1="309.33333333333337" y1="282" x2="309.33333333333337" y2="360" stroke="#21262d" stroke-width="1"/><path d="M 76.0 338.2 L 109.6 322.6 L 143.2 327.2 L 176.8 307.0 L 216.0 316.3 L 249.6 297.6 L 283.2 301.5 L 316.8 325.7 L 356.0 341.3" fill="none" stroke="#c9d1d9" stroke-width="2.6" stroke-linecap="round" stroke-linejoin="round"/><path d="M 84 330.36 H 174.0 V 315.54 H 249.6 V 301.5 H 305.6" fill="none" stroke="#1f6feb" stroke-width="2.2" stroke-dasharray="6 5" stroke-linecap="round" stroke-linejoin="round"/><circle cx="305.6" cy="301.5" r="5" fill="#0f141b" stroke="#1f6feb" stroke-width="2"/><line x1="277.6" y1="336.6" x2="350.4" y2="336.6" stroke="#1f6feb" stroke-width="2" stroke-dasharray="5 4"/><text x="280.4" y="331.92" class="mono" font-size="10" font-weight="700" fill="#1f6feb" text-anchor="start">DROP</text><line x1="76" y1="377" x2="356" y2="377" stroke="#30363d" stroke-width="1"/><text x="76" y="410" class="ui" font-size="16" font-weight="400" fill="#c9d1d9" text-anchor="start"><tspan x="76" dy="0">After any required ATR warm-up,</tspan><tspan x="76" dy="25">a usable price sets the anchor.</tspan><tspan x="76" dy="25">Only higher prices raise it.</tspan><tspan x="76" dy="25">A configured or ATR-derived drop</tspan><tspan x="76" dy="25">starts the BUY setup.</tspan></text><rect x="76" y="555" width="200.0" height="25" rx="12" fill="#0f141b" stroke="#1f6feb" stroke-width="1"/><text x="176.0" y="573" class="mono" font-size="12" font-weight="700" fill="#1f6feb" text-anchor="middle">NO UPTREND SIGNAL REQUIRED</text><rect x="396" y="170" width="324" height="430" rx="12" fill="#161b22" stroke="#30363d" stroke-width="2" filter="url(#shadow)"/><rect x="418" y="190" width="54" height="30" rx="15" fill="#238636" stroke="#238636" stroke-width="1"/><text x="445" y="211" class="mono" font-size="15" font-weight="700" fill="#ffffff" text-anchor="middle">02</text><text x="488" y="211" class="mono" font-size="13" font-weight="650" fill="#8b949e" text-anchor="start" letter-spacing="1.25">ENTER</text><text x="418" y="258" class="ui" font-size="28" font-weight="700" fill="#f0f6fc" text-anchor="start">Trail the BUY</text><rect x="418" y="282" width="280" height="78" rx="8" fill="#0f141b" stroke="#21262d" stroke-width="1"/><line x1="418" y1="301.5" x2="698" y2="301.5" stroke="#21262d" stroke-width="1"/><line x1="418" y1="321.0" x2="698" y2="321.0" stroke="#21262d" stroke-width="1"/><line x1="418" y1="340.5" x2="698" y2="340.5" stroke="#21262d" stroke-width="1"/><line x1="464.6666666666667" y1="282" x2="464.6666666666667" y2="360" stroke="#21262d" stroke-width="1"/><line x1="511.3333333333333" y1="282" x2="511.3333333333333" y2="360" stroke="#21262d" stroke-width="1"/><line x1="558.0" y1="282" x2="558.0" y2="360" stroke="#21262d" stroke-width="1"/><line x1="604.6666666666666" y1="282" x2="604.6666666666666" y2="360" stroke="#21262d" stroke-width="1"/><line x1="651.3333333333334" y1="282" x2="651.3333333333334" y2="360" stroke="#21262d" stroke-width="1"/><path d="M 418.0 302.3 L 451.6 311.6 L 488.0 322.6 L 518.8 336.6 L 552.4 344.4 L 588.8 338.2 L 619.6 324.9 L 647.6 311.6 L 675.6 302.3 L 698.0 296.0" fill="none" stroke="#c9d1d9" stroke-width="2.6" stroke-linecap="round" stroke-linejoin="round"/><path d="M 479.6 313.2 H 513.2 V 325.68 H 549.6 V 332.7 H 591.6" fill="none" stroke="#238636" stroke-width="2.4" stroke-dasharray="6 4" stroke-linecap="round" stroke-linejoin="round"/><circle cx="594.4" cy="332.7" r="5" fill="#0f141b" stroke="#238636" stroke-width="2"/><path d="M 594.4 332.7 L 628.0 317.88" fill="none" stroke="#238636" stroke-width="2.4" stroke-linecap="round" stroke-linejoin="round"/><line x1="418" y1="377" x2="698" y2="377" stroke="#30363d" stroke-width="1"/><text x="418" y="410" class="ui" font-size="16" font-weight="400" fill="#c9d1d9" text-anchor="start"><tspan x="418" dy="0">At the drop, submit a native BUY</tspan><tspan x="418" dy="25">TRAIL. Its stop follows new lows.</tspan><tspan x="418" dy="25">A rebound can trigger a</tspan><tspan x="418" dy="25">market-style BUY.</tspan><tspan x="418" dy="25">A 0% trail submits a market BUY.</tspan></text><rect x="418" y="555" width="186.0" height="25" rx="12" fill="#0f141b" stroke="#238636" stroke-width="1"/><text x="511.0" y="573" class="mono" font-size="12" font-weight="700" fill="#238636" text-anchor="middle">PARTIAL FILL CAN ADVANCE</text><rect x="738" y="170" width="324" height="430" rx="12" fill="#161b22" stroke="#30363d" stroke-width="2" filter="url(#shadow)"/><rect x="760" y="190" width="54" height="30" rx="15" fill="#d29922" stroke="#d29922" stroke-width="1"/><text x="787" y="211" class="mono" font-size="15" font-weight="700" fill="#ffffff" text-anchor="middle">03</text><text x="830" y="211" class="mono" font-size="13" font-weight="650" fill="#8b949e" text-anchor="start" letter-spacing="1.25">ARM EXIT</text><text x="760" y="258" class="ui" font-size="28" font-weight="700" fill="#f0f6fc" text-anchor="start">Arm the profit exit</text><rect x="760" y="282" width="280" height="78" rx="8" fill="#0f141b" stroke="#21262d" stroke-width="1"/><line x1="760" y1="301.5" x2="1040" y2="301.5" stroke="#21262d" stroke-width="1"/><line x1="760" y1="321.0" x2="1040" y2="321.0" stroke="#21262d" stroke-width="1"/><line x1="760" y1="340.5" x2="1040" y2="340.5" stroke="#21262d" stroke-width="1"/><line x1="806.6666666666666" y1="282" x2="806.6666666666666" y2="360" stroke="#21262d" stroke-width="1"/><line x1="853.3333333333334" y1="282" x2="853.3333333333334" y2="360" stroke="#21262d" stroke-width="1"/><line x1="900.0" y1="282" x2="900.0" y2="360" stroke="#21262d" stroke-width="1"/><line x1="946.6666666666666" y1="282" x2="946.6666666666666" y2="360" stroke="#21262d" stroke-width="1"/><line x1="993.3333333333334" y1="282" x2="993.3333333333334" y2="360" stroke="#21262d" stroke-width="1"/><path d="M 760.0 342.8 L 793.6 333.5 L 821.6 338.2 L 855.2 324.1 L 886.0 326.5 L 919.6 314.8 L 950.4 319.4 L 984.0 304.6 L 1012.0 309.3 L 1040.0 294.5" fill="none" stroke="#c9d1d9" stroke-width="2.6" stroke-linecap="round" stroke-linejoin="round"/><line x1="810.4" y1="330.36" x2="1028.8" y2="330.36" stroke="#d29922" stroke-width="2" stroke-dasharray="6 4"/><text x="933.6" y="325.68" class="mono" font-size="10" font-weight="700" fill="#d29922" text-anchor="start">MIN STOP</text><circle cx="844.0" cy="331.14" r="5" fill="#0f141b" stroke="#d29922" stroke-width="2"/><line x1="760" y1="377" x2="1040" y2="377" stroke="#30363d" stroke-width="1"/><text x="760" y="410" class="ui" font-size="16" font-weight="400" fill="#c9d1d9" text-anchor="start"><tspan x="760" dy="0">The actual average BUY fill is the</tspan><tspan x="760" dy="25">profit reference. Wait until the</tspan><tspan x="760" dy="25">final SELL can start with its stop</tspan><tspan x="760" dy="25">at or above the configured</tspan><tspan x="760" dy="25">gross-profit level.</tspan><tspan x="760" dy="25">No default protective stop-loss.</tspan></text><rect x="760" y="555" width="186.0" height="25" rx="12" fill="#0f141b" stroke="#d29922" stroke-width="1"/><text x="853.0" y="573" class="mono" font-size="12" font-weight="700" fill="#d29922" text-anchor="middle">POSITION MAY REMAIN OPEN</text><rect x="1080" y="170" width="324" height="430" rx="12" fill="#161b22" stroke="#30363d" stroke-width="2" filter="url(#shadow)"/><rect x="1102" y="190" width="54" height="30" rx="15" fill="#a371f7" stroke="#a371f7" stroke-width="1"/><text x="1129" y="211" class="mono" font-size="15" font-weight="700" fill="#ffffff" text-anchor="middle">04</text><text x="1172" y="211" class="mono" font-size="13" font-weight="650" fill="#8b949e" text-anchor="start" letter-spacing="1.25">EXIT</text><text x="1102" y="258" class="ui" font-size="28" font-weight="700" fill="#f0f6fc" text-anchor="start">Trail the SELL</text><rect x="1102" y="282" width="280" height="78" rx="8" fill="#0f141b" stroke="#21262d" stroke-width="1"/><line x1="1102" y1="301.5" x2="1382" y2="301.5" stroke="#21262d" stroke-width="1"/><line x1="1102" y1="321.0" x2="1382" y2="321.0" stroke="#21262d" stroke-width="1"/><line x1="1102" y1="340.5" x2="1382" y2="340.5" stroke="#21262d" stroke-width="1"/><line x1="1148.6666666666667" y1="282" x2="1148.6666666666667" y2="360" stroke="#21262d" stroke-width="1"/><line x1="1195.3333333333333" y1="282" x2="1195.3333333333333" y2="360" stroke="#21262d" stroke-width="1"/><line x1="1242.0" y1="282" x2="1242.0" y2="360" stroke="#21262d" stroke-width="1"/><line x1="1288.6666666666667" y1="282" x2="1288.6666666666667" y2="360" stroke="#21262d" stroke-width="1"/><line x1="1335.3333333333333" y1="282" x2="1335.3333333333333" y2="360" stroke="#21262d" stroke-width="1"/><path d="M 1102.0 339.7 L 1135.6 330.4 L 1166.4 335.0 L 1200.0 319.4 L 1230.8 324.1 L 1264.4 307.0 L 1298.0 313.2 L 1331.6 297.6 L 1359.6 310.1 L 1382.0 332.7" fill="none" stroke="#c9d1d9" stroke-width="2.6" stroke-linecap="round" stroke-linejoin="round"/><path d="M 1236.4 330.36 H 1272.8 V 319.44 H 1312.0 V 310.86 H 1348.4" fill="none" stroke="#a371f7" stroke-width="2.4" stroke-dasharray="6 4" stroke-linecap="round" stroke-linejoin="round"/><circle cx="1365.2" cy="324.12" r="5" fill="#0f141b" stroke="#a371f7" stroke-width="2"/><line x1="1102" y1="377" x2="1382" y2="377" stroke="#30363d" stroke-width="1"/><text x="1102" y="410" class="ui" font-size="16" font-weight="400" fill="#c9d1d9" text-anchor="start"><tspan x="1102" dy="0">Submit a native SELL TRAIL for the</tspan><tspan x="1102" dy="25">remaining app-owned quantity.</tspan><tspan x="1102" dy="25">A pullback can trigger a</tspan><tspan x="1102" dy="25">market-style SELL.</tspan><tspan x="1102" dy="25">A 0% trail submits a market SELL.</tspan></text><rect x="1102" y="555" width="214.0" height="25" rx="12" fill="#0f141b" stroke="#a371f7" stroke-width="1"/><text x="1209.0" y="573" class="mono" font-size="12" font-weight="700" fill="#a371f7" text-anchor="middle">STOP IS NOT A FILL GUARANTEE</text><rect x="1422" y="170" width="324" height="430" rx="12" fill="#161b22" stroke="#30363d" stroke-width="2" filter="url(#shadow)"/><rect x="1444" y="190" width="54" height="30" rx="15" fill="#da3633" stroke="#da3633" stroke-width="1"/><text x="1471" y="211" class="mono" font-size="15" font-weight="700" fill="#ffffff" text-anchor="middle">05</text><text x="1514" y="211" class="mono" font-size="13" font-weight="650" fill="#8b949e" text-anchor="start" letter-spacing="1.25">RECORD</text><text x="1444" y="258" class="ui" font-size="28" font-weight="700" fill="#f0f6fc" text-anchor="start">Record &amp; repeat</text><rect x="1444" y="282" width="280" height="78" rx="8" fill="#0f141b" stroke="#21262d" stroke-width="1"/><line x1="1444" y1="301.5" x2="1724" y2="301.5" stroke="#21262d" stroke-width="1"/><line x1="1444" y1="321.0" x2="1724" y2="321.0" stroke="#21262d" stroke-width="1"/><line x1="1444" y1="340.5" x2="1724" y2="340.5" stroke="#21262d" stroke-width="1"/><line x1="1490.6666666666667" y1="282" x2="1490.6666666666667" y2="360" stroke="#21262d" stroke-width="1"/><line x1="1537.3333333333333" y1="282" x2="1537.3333333333333" y2="360" stroke="#21262d" stroke-width="1"/><line x1="1584.0" y1="282" x2="1584.0" y2="360" stroke="#21262d" stroke-width="1"/><line x1="1630.6666666666667" y1="282" x2="1630.6666666666667" y2="360" stroke="#21262d" stroke-width="1"/><line x1="1677.3333333333333" y1="282" x2="1677.3333333333333" y2="360" stroke="#21262d" stroke-width="1"/><ellipse cx="1542.0" cy="301.44" rx="28" ry="10" fill="none" stroke="#da3633" stroke-width="2.3"/><path d="M 1514.0 301.44 V 337.44 Q 1542.0 350.44 1570.0 337.44 V 301.44" fill="none" stroke="#da3633" stroke-width="2.3" stroke-linecap="round" stroke-linejoin="round"/><path d="M 1612.0 308.52 A 24 24 0 1 1 1612.0 335.04" fill="none" stroke="#da3633" stroke-width="2.4" stroke-linecap="round" stroke-linejoin="round"/><path d="M 1606.4 302.28 L 1645.6 306.18 L 1620.4 314.76" fill="#da3633" stroke-linecap="round" stroke-linejoin="round"/><text x="1659.6" y="324.12" class="mono" font-size="12" font-weight="700" fill="#da3633" text-anchor="middle">P&amp;L</text><line x1="1444" y1="377" x2="1724" y2="377" stroke="#30363d" stroke-width="1"/><text x="1444" y="410" class="ui" font-size="16" font-weight="400" fill="#c9d1d9" text-anchor="start"><tspan x="1444" dy="0">Store fills, commissions,</tspan><tspan x="1444" dy="25">gross/net P&amp;L, timestamps,</tspan><tspan x="1444" dy="25">and audit events.</tspan><tspan x="1444" dy="25">Auto-repeat can start another cycle;</tspan><tspan x="1444" dy="25">positive completed ticker P&amp;L can</tspan><tspan x="1444" dy="25">increase the next cycle budget.</tspan></text><rect x="1444" y="555" width="221.0" height="25" rx="12" fill="#0f141b" stroke="#da3633" stroke-width="1"/><text x="1554.5" y="573" class="mono" font-size="12" font-weight="700" fill="#da3633" text-anchor="middle">LOSSES DO NOT CUT BASE BUDGET</text><rect x="54" y="630" width="1110" height="470" rx="12" fill="#161b22" stroke="#30363d" stroke-width="2" filter="url(#shadow)"/><text x="78" y="658" class="mono" font-size="12" font-weight="650" fill="#8b949e" text-anchor="start" letter-spacing="1.2">ILLUSTRATIVE — NOT TO SCALE</text><text x="78" y="690" class="ui" font-size="24" font-weight="700" fill="#f0f6fc" text-anchor="start">Example price &amp; order path</text><line x1="78" y1="706" x2="198" y2="706" stroke="#1f6feb" stroke-width="3"/><rect x="110" y="736" width="1018" height="300" rx="8" fill="#0f141b" stroke="#21262d" stroke-width="1"/><line x1="110" y1="796.0" x2="1128" y2="796.0" stroke="#21262d" stroke-width="1"/><line x1="110" y1="856.0" x2="1128" y2="856.0" stroke="#21262d" stroke-width="1"/><line x1="110" y1="916.0" x2="1128" y2="916.0" stroke="#21262d" stroke-width="1"/><line x1="110" y1="976.0" x2="1128" y2="976.0" stroke="#21262d" stroke-width="1"/><line x1="211.8" y1="736" x2="211.8" y2="1036" stroke="#21262d" stroke-width="1"/><line x1="313.6" y1="736" x2="313.6" y2="1036" stroke="#21262d" stroke-width="1"/><line x1="415.4" y1="736" x2="415.4" y2="1036" stroke="#21262d" stroke-width="1"/><line x1="517.2" y1="736" x2="517.2" y2="1036" stroke="#21262d" stroke-width="1"/><line x1="619.0" y1="736" x2="619.0" y2="1036" stroke="#21262d" stroke-width="1"/><line x1="720.8" y1="736" x2="720.8" y2="1036" stroke="#21262d" stroke-width="1"/><line x1="822.6" y1="736" x2="822.6" y2="1036" stroke="#21262d" stroke-width="1"/><line x1="924.4" y1="736" x2="924.4" y2="1036" stroke="#21262d" stroke-width="1"/><line x1="1026.2" y1="736" x2="1026.2" y2="1036" stroke="#21262d" stroke-width="1"/><text x="92" y="748" class="mono" font-size="11" font-weight="600" fill="#8b949e" text-anchor="end">PRICE</text><text x="1128" y="1061" class="mono" font-size="11" font-weight="600" fill="#8b949e" text-anchor="end">TIME / EVENTS</text><path d="M 110.0 955.0 L 181.3 916.0 L 252.5 886.0 L 313.6 904.0 L 384.9 862.0 L 456.1 886.0 L 527.4 934.0 L 598.6 973.0 L 669.9 943.0 L 731.0 901.0 L 802.2 871.0 L 873.5 826.0 L 944.8 799.0 L 1005.8 820.0 L 1066.9 847.0 L 1128.0 910.0" fill="none" stroke="#c9d1d9" stroke-width="3.2" stroke-linecap="round" stroke-linejoin="round"/><path d="M 115 919.0 H 283.06 V 886.0 H 435.76 V 862.0 H 517.2" fill="none" stroke="#1f6feb" stroke-width="2.5" stroke-dasharray="7 5" stroke-linecap="round" stroke-linejoin="round"/><text x="160.9" y="904.0" class="mono" font-size="12" font-weight="700" fill="#1f6feb" text-anchor="start">ANCHOR</text><line x1="425.58" y1="931.0" x2="608.8199999999999" y2="931.0" stroke="#1f6feb" stroke-width="2" stroke-dasharray="6 5"/><text x="430.67" y="922.0" class="mono" font-size="11" font-weight="700" fill="#1f6feb" text-anchor="start">DROP TRIGGER</text><path d="M 507.02000000000004 901.0 H 547.74 V 940.0 H 598.64 V 958.0 H 659.72" fill="none" stroke="#3fb950" stroke-width="2.6" stroke-dasharray="7 5" stroke-linecap="round" stroke-linejoin="round"/><circle cx="669.9000000000001" cy="943.0" r="6" fill="#0f141b" stroke="#3fb950" stroke-width="2.5"/><text x="537.56" y="988.0" class="mono" font-size="11" font-weight="700" fill="#3fb950" text-anchor="start">BUY TRAIL FOLLOWS LOWS</text><text x="669.9000000000001" y="928.0" class="mono" font-size="11" font-weight="700" fill="#3fb950" text-anchor="start">AVG BUY FILL</text><line x1="669.9000000000001" y1="877.0" x2="985.48" y2="877.0" stroke="#d29922" stroke-width="2" stroke-dasharray="7 5"/><line x1="669.9000000000001" y1="829.0" x2="985.48" y2="829.0" stroke="#f0883e" stroke-width="2" stroke-dasharray="7 5"/><text x="690.26" y="868.0" class="mono" font-size="11" font-weight="700" fill="#d29922" text-anchor="start">MINIMUM SELL STOP</text><text x="690.26" y="820.0" class="mono" font-size="11" font-weight="700" fill="#f0883e" text-anchor="start">PRICE REQUIRED TO ARM SELL</text><circle cx="873.5" cy="826.0" r="6" fill="#0f141b" stroke="#f0883e" stroke-width="2.5"/><path d="M 863.3199999999999 880.0 H 914.22 V 850.0 H 965.12 V 829.0 H 1016.02 V 853.0 H 1066.92" fill="none" stroke="#a371f7" stroke-width="2.7" stroke-dasharray="7 5" stroke-linecap="round" stroke-linejoin="round"/><circle cx="1077.1" cy="883.0" r="6" fill="#0f141b" stroke="#a371f7" stroke-width="2.5"/><text x="872" y="907.0" class="mono" font-size="11" font-weight="700" fill="#a371f7" text-anchor="start">SELL TRAIL FOLLOWS HIGHS</text><text x="1091" y="899" class="mono" font-size="11" font-weight="700" fill="#da3633" text-anchor="start">EXIT</text><rect x="78" y="1058" width="108" height="25" rx="14" fill="#0f141b" stroke="#1f6feb" stroke-width="1"/><text x="132.0" y="1077" class="mono" font-size="11" font-weight="700" fill="#1f6feb" text-anchor="middle">1  ANCHOR</text><rect x="196" y="1058" width="126" height="25" rx="14" fill="#0f141b" stroke="#238636" stroke-width="1"/><text x="259.0" y="1077" class="mono" font-size="11" font-weight="700" fill="#3fb950" text-anchor="middle">2  BUY TRAIL</text><rect x="332" y="1058" width="122" height="25" rx="14" fill="#0f141b" stroke="#d29922" stroke-width="1"/><text x="393.0" y="1077" class="mono" font-size="11" font-weight="700" fill="#d29922" text-anchor="middle">3  ARM SELL</text><rect x="464" y="1058" width="132" height="25" rx="14" fill="#0f141b" stroke="#a371f7" stroke-width="1"/><text x="530.0" y="1077" class="mono" font-size="11" font-weight="700" fill="#a371f7" text-anchor="middle">4  SELL TRAIL</text><rect x="606" y="1058" width="105" height="25" rx="14" fill="#0f141b" stroke="#da3633" stroke-width="1"/><text x="658.5" y="1077" class="mono" font-size="11" font-weight="700" fill="#da3633" text-anchor="middle">5  RECORD</text><text x="744" y="1077" class="ui" font-size="14" font-weight="500" fill="#8b949e" text-anchor="start">Native TRAIL orders trigger market-style execution.</text><rect x="1182" y="630" width="564" height="242" rx="12" fill="#161b22" stroke="#30363d" stroke-width="2" filter="url(#shadow)"/><text x="1206" y="652" class="mono" font-size="12" font-weight="650" fill="#8b949e" text-anchor="start" letter-spacing="1.2">ATR ENGINE</text><text x="1206" y="684" class="ui" font-size="24" font-weight="700" fill="#f0f6fc" text-anchor="start">Adaptive defaults</text><line x1="1206" y1="700" x2="1326" y2="700" stroke="#39c5cf" stroke-width="3"/><rect x="1212" y="778.0" width="11" height="12.0" rx="2" fill="#39c5cf"/><rect x="1230" y="771.25" width="11" height="18.75" rx="2" fill="#39c5cf"/><rect x="1248" y="775.0" width="11" height="15.0" rx="2" fill="#39c5cf"/><rect x="1266" y="763.0" width="11" height="27.0" rx="2" fill="#39c5cf"/><rect x="1284" y="769.0" width="11" height="21.0" rx="2" fill="#39c5cf"/><rect x="1302" y="757.75" width="11" height="32.25" rx="2" fill="#39c5cf"/><rect x="1320" y="764.5" width="11" height="25.5" rx="2" fill="#39c5cf"/><rect x="1338" y="751.75" width="11" height="38.25" rx="2" fill="#39c5cf"/><rect x="1356" y="760.75" width="11" height="29.25" rx="2" fill="#39c5cf"/><rect x="1374" y="747.25" width="11" height="42.75" rx="2" fill="#39c5cf"/><rect x="1392" y="754.75" width="11" height="35.25" rx="2" fill="#39c5cf"/><rect x="1410" y="743.5" width="11" height="46.5" rx="2" fill="#39c5cf"/><rect x="1428" y="749.5" width="11" height="40.5" rx="2" fill="#39c5cf"/><rect x="1446" y="739.0" width="11" height="51.0" rx="2" fill="#39c5cf"/><rect x="1464" y="744.25" width="11" height="45.75" rx="2" fill="#39c5cf"/><line x1="1210" y1="790" x2="1489" y2="790" stroke="#30363d" stroke-width="1"/><text x="1512" y="743" class="ui" font-size="17" font-weight="700" fill="#f0f6fc" text-anchor="start">14-period ATR</text><text x="1512" y="769" class="ui" font-size="15" font-weight="500" fill="#c9d1d9" text-anchor="start">60-second RTH buckets</text><text x="1512" y="794" class="ui" font-size="14" font-weight="500" fill="#8b949e" text-anchor="start">Ready after 15 distinct buckets</text><circle cx="1212" cy="811" r="5" fill="#1f6feb"/><text x="1226" y="816" class="mono" font-size="11" font-weight="700" fill="#8b949e" text-anchor="start">DROP</text><text x="1450" y="816" class="mono" font-size="12" font-weight="700" fill="#1f6feb" text-anchor="end">1.50 × ATR%</text><circle cx="1470" cy="811" r="5" fill="#3fb950"/><text x="1484" y="816" class="mono" font-size="11" font-weight="700" fill="#8b949e" text-anchor="start">BUY TRAIL</text><text x="1720" y="816" class="mono" font-size="12" font-weight="700" fill="#3fb950" text-anchor="end">0.75 × ATR%</text><circle cx="1212" cy="838" r="5" fill="#d29922"/><text x="1226" y="843" class="mono" font-size="11" font-weight="700" fill="#8b949e" text-anchor="start">MIN GROSS PROFIT</text><text x="1450" y="843" class="mono" font-size="12" font-weight="700" fill="#d29922" text-anchor="end">1.00 × ATR%</text><circle cx="1470" cy="838" r="5" fill="#a371f7"/><text x="1484" y="843" class="mono" font-size="11" font-weight="700" fill="#8b949e" text-anchor="start">SELL TRAIL</text><text x="1720" y="843" class="mono" font-size="12" font-weight="700" fill="#a371f7" text-anchor="end">1.00 × ATR%</text><text x="1212" y="860" class="ui" font-size="12" font-weight="500" fill="#8b949e" text-anchor="start">Each result is clamped to 0.10%–20.00%. Default entry waits for ATR readiness.</text><rect x="1182" y="890" width="564" height="210" rx="12" fill="#161b22" stroke="#30363d" stroke-width="2" filter="url(#shadow)"/><text x="1206" y="912" class="mono" font-size="12" font-weight="650" fill="#8b949e" text-anchor="start" letter-spacing="1.2">POSITION SIZE</text><text x="1206" y="944" class="ui" font-size="24" font-weight="700" fill="#f0f6fc" text-anchor="start">Budget &amp; whole-share sizing</text><line x1="1206" y1="960" x2="1326" y2="960" stroke="#3fb950" stroke-width="3"/><rect x="1206" y="982" width="152" height="56" rx="8" fill="#0f141b" stroke="#21262d" stroke-width="1"/><text x="1282" y="1005" class="mono" font-size="11" font-weight="700" fill="#8b949e" text-anchor="middle">BASE</text><text x="1282" y="1029" class="ui" font-size="22" font-weight="700" fill="#f0f6fc" text-anchor="middle">$10,000</text><text x="1372" y="1018" class="ui" font-size="24" font-weight="500" fill="#8b949e" text-anchor="middle">+</text><rect x="1390" y="982" width="205" height="56" rx="8" fill="#0f141b" stroke="#21262d" stroke-width="1"/><text x="1492" y="1004" class="mono" font-size="10" font-weight="700" fill="#8b949e" text-anchor="middle">POSITIVE COMPLETED</text><text x="1492" y="1028" class="ui" font-size="15" font-weight="700" fill="#3fb950" text-anchor="middle">TICKER NET P&amp;L</text><text x="1612" y="1018" class="ui" font-size="24" font-weight="500" fill="#8b949e" text-anchor="middle">=</text><rect x="1629" y="982" width="93" height="56" rx="8" fill="#0f141b" stroke="#21262d" stroke-width="1"/><text x="1675" y="1005" class="mono" font-size="10" font-weight="700" fill="#8b949e" text-anchor="middle">BUDGET</text><text x="1675" y="1029" class="ui" font-size="16" font-weight="700" fill="#f0f6fc" text-anchor="middle">NEXT</text><text x="1206" y="1058" class="mono" font-size="14" font-weight="650" fill="#c9d1d9" text-anchor="start">quantity = floor(budget ÷ projected BUY stop)</text><text x="1206" y="1082" class="ui" font-size="12" font-weight="500" fill="#8b949e" text-anchor="start">Optional slippage sizing buffer is OFF by default; IBKR what-if preflight is ON.</text><rect x="54" y="1130" width="528" height="390" rx="12" fill="#161b22" stroke="#30363d" stroke-width="2" filter="url(#shadow)"/><text x="78" y="1154" class="mono" font-size="12" font-weight="650" fill="#8b949e" text-anchor="start" letter-spacing="1.2">FAIL-CLOSED ENTRY GATES</text><text x="78" y="1186" class="ui" font-size="24" font-weight="700" fill="#f0f6fc" text-anchor="start">Before a BUY can be sent</text><line x1="78" y1="1202" x2="198" y2="1202" stroke="#3fb950" stroke-width="3"/><circle cx="90" cy="1227" r="9" fill="#3fb950"/><path d="M 86 1227 L 89 1231 L 95 1222" fill="none" stroke="#ffffff" stroke-width="2.1" stroke-linecap="round" stroke-linejoin="round"/><text x="110" y="1232" class="ui" font-size="15" font-weight="500" fill="#c9d1d9" text-anchor="start">Local API socket + upstream IBKR link</text><circle cx="90" cy="1256" r="9" fill="#3fb950"/><path d="M 86 1256 L 89 1260 L 95 1251" fill="none" stroke="#ffffff" stroke-width="2.1" stroke-linecap="round" stroke-linejoin="round"/><text x="110" y="1261" class="ui" font-size="15" font-weight="500" fill="#c9d1d9" text-anchor="start">Post-reconnect reconciliation complete</text><circle cx="90" cy="1285" r="9" fill="#3fb950"/><path d="M 86 1285 L 89 1289 L 95 1280" fill="none" stroke="#ffffff" stroke-width="2.1" stroke-linecap="round" stroke-linejoin="round"/><text x="110" y="1290" class="ui" font-size="15" font-weight="500" fill="#c9d1d9" text-anchor="start">Qualified contract and valid minimum tick</text><circle cx="90" cy="1314" r="9" fill="#3fb950"/><path d="M 86 1314 L 89 1318 L 95 1309" fill="none" stroke="#ffffff" stroke-width="2.1" stroke-linecap="round" stroke-linejoin="round"/><text x="110" y="1319" class="ui" font-size="15" font-weight="500" fill="#c9d1d9" text-anchor="start">Open RTH and allowed session window</text><circle cx="90" cy="1343" r="9" fill="#3fb950"/><path d="M 86 1343 L 89 1347 L 95 1338" fill="none" stroke="#ffffff" stroke-width="2.1" stroke-linecap="round" stroke-linejoin="round"/><text x="110" y="1348" class="ui" font-size="15" font-weight="500" fill="#c9d1d9" text-anchor="start">Fresh selected price, bid, ask, and RTH status</text><circle cx="90" cy="1372" r="9" fill="#3fb950"/><path d="M 86 1372 L 89 1376 L 95 1367" fill="none" stroke="#ffffff" stroke-width="2.1" stroke-linecap="round" stroke-linejoin="round"/><text x="110" y="1377" class="ui" font-size="15" font-weight="500" fill="#c9d1d9" text-anchor="start">Confirmed live data for live trading mode</text><circle cx="90" cy="1401" r="9" fill="#3fb950"/><path d="M 86 1401 L 89 1405 L 95 1396" fill="none" stroke="#ffffff" stroke-width="2.1" stroke-linecap="round" stroke-linejoin="round"/><text x="110" y="1406" class="ui" font-size="15" font-weight="500" fill="#c9d1d9" text-anchor="start">ATR ready when the default blocker is enabled</text><circle cx="90" cy="1430" r="9" fill="#3fb950"/><path d="M 86 1430 L 89 1434 L 95 1425" fill="none" stroke="#ffffff" stroke-width="2.1" stroke-linecap="round" stroke-linejoin="round"/><text x="110" y="1435" class="ui" font-size="15" font-weight="500" fill="#c9d1d9" text-anchor="start">No unsold app-owned quantity in the fill ledger</text><circle cx="90" cy="1459" r="9" fill="#3fb950"/><path d="M 86 1459 L 89 1463 L 95 1454" fill="none" stroke="#ffffff" stroke-width="2.1" stroke-linecap="round" stroke-linejoin="round"/><text x="110" y="1464" class="ui" font-size="15" font-weight="500" fill="#c9d1d9" text-anchor="start">IBKR what-if margin preflight accepted</text><rect x="78" y="1480" width="480" height="24" rx="12" fill="#0f141b" stroke="#238636" stroke-width="1"/><text x="318.0" y="1497" class="mono" font-size="11" font-weight="700" fill="#3fb950" text-anchor="middle">THE FIRST BLOCKER PAUSES ENTRY — IT DOES NOT GUESS</text><rect x="636" y="1130" width="528" height="390" rx="12" fill="#161b22" stroke="#30363d" stroke-width="2" filter="url(#shadow)"/><text x="660" y="1154" class="mono" font-size="12" font-weight="650" fill="#8b949e" text-anchor="start" letter-spacing="1.2">APPLICATION ARCHITECTURE</text><text x="660" y="1186" class="ui" font-size="24" font-weight="700" fill="#f0f6fc" text-anchor="start">How BouncyBot reaches IBKR</text><line x1="660" y1="1202" x2="780" y2="1202" stroke="#1f6feb" stroke-width="3"/><rect x="660" y="1230" width="142" height="58" rx="8" fill="#0f141b" stroke="#30363d" stroke-width="1.5"/><text x="731.0" y="1255" class="ui" font-size="14" font-weight="700" fill="#f0f6fc" text-anchor="middle">PySide6 GUI</text><text x="731.0" y="1275" class="mono" font-size="11" font-weight="500" fill="#8b949e" text-anchor="middle">Qt main thread</text><rect x="829" y="1230" width="142" height="58" rx="8" fill="#0f141b" stroke="#1f6feb" stroke-width="1.5"/><text x="900.0" y="1255" class="ui" font-size="14" font-weight="700" fill="#f0f6fc" text-anchor="middle">Controller</text><text x="900.0" y="1275" class="mono" font-size="11" font-weight="500" fill="#8b949e" text-anchor="middle">worker thread</text><rect x="998" y="1230" width="142" height="58" rx="8" fill="#0f141b" stroke="#238636" stroke-width="1.5"/><text x="1069.0" y="1255" class="ui" font-size="14" font-weight="700" fill="#f0f6fc" text-anchor="middle">StrategyEngine</text><text x="1069.0" y="1275" class="mono" font-size="11" font-weight="500" fill="#8b949e" text-anchor="middle">pure decisions</text><rect x="829" y="1335" width="142" height="58" rx="8" fill="#0f141b" stroke="#a371f7" stroke-width="1.5"/><text x="900.0" y="1360" class="ui" font-size="14" font-weight="700" fill="#f0f6fc" text-anchor="middle">BrokerAdapter</text><text x="900.0" y="1380" class="mono" font-size="11" font-weight="500" fill="#8b949e" text-anchor="middle">order boundary</text><rect x="998" y="1335" width="142" height="58" rx="8" fill="#0f141b" stroke="#d29922" stroke-width="1.5"/><text x="1069.0" y="1360" class="ui" font-size="14" font-weight="700" fill="#f0f6fc" text-anchor="middle">TWS / Gateway</text><text x="1069.0" y="1380" class="mono" font-size="11" font-weight="500" fill="#8b949e" text-anchor="middle">socket API</text><rect x="660" y="1440" width="142" height="50" rx="8" fill="#0f141b" stroke="#da3633" stroke-width="1.5"/><text x="731.0" y="1465" class="ui" font-size="14" font-weight="700" fill="#f0f6fc" text-anchor="middle">SQLite</text><text x="731.0" y="1485" class="mono" font-size="11" font-weight="500" fill="#8b949e" text-anchor="middle">cycles + audit</text><rect x="829" y="1440" width="142" height="50" rx="8" fill="#0f141b" stroke="#39c5cf" stroke-width="1.5"/><text x="900.0" y="1465" class="ui" font-size="14" font-weight="700" fill="#f0f6fc" text-anchor="middle">ATR buffer</text><text x="900.0" y="1485" class="mono" font-size="11" font-weight="500" fill="#8b949e" text-anchor="middle">in-memory RTH</text><rect x="998" y="1440" width="142" height="50" rx="8" fill="#0f141b" stroke="#3fb950" stroke-width="1.5"/><text x="1069.0" y="1465" class="ui" font-size="14" font-weight="700" fill="#f0f6fc" text-anchor="middle">IBKR</text><text x="1069.0" y="1485" class="mono" font-size="11" font-weight="500" fill="#8b949e" text-anchor="middle">orders + fills</text><line x1="802" y1="1259" x2="829" y2="1259" stroke="#8b949e" stroke-width="2"/><path d="M 822 1254 L 829 1259 L 822 1264" fill="none" stroke="#8b949e" stroke-width="2" stroke-linecap="round" stroke-linejoin="round"/><line x1="971" y1="1259" x2="998" y2="1259" stroke="#8b949e" stroke-width="2"/><path d="M 991 1254 L 998 1259 L 991 1264" fill="none" stroke="#8b949e" stroke-width="2" stroke-linecap="round" stroke-linejoin="round"/><line x1="900" y1="1288" x2="900" y2="1335" stroke="#8b949e" stroke-width="2"/><path d="M 895 1328 L 900 1335 L 905 1328" fill="none" stroke="#8b949e" stroke-width="2" stroke-linecap="round" stroke-linejoin="round"/><line x1="971" y1="1364" x2="998" y2="1364" stroke="#8b949e" stroke-width="2"/><path d="M 991 1359 L 998 1364 L 991 1369" fill="none" stroke="#8b949e" stroke-width="2" stroke-linecap="round" stroke-linejoin="round"/><line x1="900" y1="1393" x2="900" y2="1440" stroke="#8b949e" stroke-width="2"/><path d="M 895 1433 L 900 1440 L 905 1433" fill="none" stroke="#8b949e" stroke-width="2" stroke-linecap="round" stroke-linejoin="round"/><line x1="1069" y1="1393" x2="1069" y2="1440" stroke="#8b949e" stroke-width="2"/><path d="M 1064 1433 L 1069 1440 L 1074 1433" fill="none" stroke="#8b949e" stroke-width="2" stroke-linecap="round" stroke-linejoin="round"/><line x1="829" y1="1465" x2="802" y2="1465" stroke="#8b949e" stroke-width="2"/><path d="M 809 1460 L 802 1465 L 809 1470" fill="none" stroke="#8b949e" stroke-width="2" stroke-linecap="round" stroke-linejoin="round"/><text x="660" y="1500" class="ui" font-size="12" font-weight="500" fill="#8b949e" text-anchor="start">GUI renders state; the controller owns broker side effects.</text><rect x="1218" y="1130" width="528" height="390" rx="12" fill="#161b22" stroke="#30363d" stroke-width="2" filter="url(#shadow)"/><text x="1242" y="1154" class="mono" font-size="12" font-weight="650" fill="#8b949e" text-anchor="start" letter-spacing="1.2">BROKER-SAFE OPERATIONS</text><text x="1242" y="1186" class="ui" font-size="24" font-weight="700" fill="#f0f6fc" text-anchor="start">Execution, ownership &amp; recovery</text><line x1="1242" y1="1202" x2="1362" y2="1202" stroke="#a371f7" stroke-width="3"/><rect x="1242" y="1217" width="105" height="25" rx="12" fill="#0f141b" stroke="#21262d" stroke-width="1"/><text x="1294.5" y="1235" class="mono" font-size="11" font-weight="700" fill="#a371f7" text-anchor="middle">IBKRBOT|</text><text x="1363" y="1235" class="ui" font-size="13" font-weight="500" fill="#c9d1d9" text-anchor="start"><tspan x="1363" dy="0">App-created orders use an ownership prefix.</tspan></text><rect x="1242" y="1264" width="105" height="25" rx="12" fill="#0f141b" stroke="#21262d" stroke-width="1"/><text x="1294.5" y="1282" class="mono" font-size="11" font-weight="700" fill="#a371f7" text-anchor="middle">PARTIAL BUY</text><text x="1363" y="1282" class="ui" font-size="13" font-weight="500" fill="#c9d1d9" text-anchor="start"><tspan x="1363" dy="0">Any positive fill is managed; the remainder is cancelled.</tspan></text><rect x="1242" y="1311" width="105" height="25" rx="12" fill="#0f141b" stroke="#21262d" stroke-width="1"/><text x="1294.5" y="1329" class="mono" font-size="11" font-weight="700" fill="#a371f7" text-anchor="middle">APP QUANTITY</text><text x="1363" y="1321" class="ui" font-size="13" font-weight="500" fill="#c9d1d9" text-anchor="start"><tspan x="1363" dy="0">Unsold shares come from persisted app fills,</tspan><tspan x="1363" dy="18">not from the total account position.</tspan></text><rect x="1242" y="1358" width="105" height="25" rx="12" fill="#0f141b" stroke="#21262d" stroke-width="1"/><text x="1294.5" y="1376" class="mono" font-size="11" font-weight="700" fill="#a371f7" text-anchor="middle">RECONNECT</text><text x="1363" y="1368" class="ui" font-size="13" font-weight="500" fill="#c9d1d9" text-anchor="start"><tspan x="1363" dy="0">Freshness is invalidated; orders and executions</tspan><tspan x="1363" dy="18">reconcile before resuming.</tspan></text><rect x="1242" y="1405" width="105" height="25" rx="12" fill="#0f141b" stroke="#21262d" stroke-width="1"/><text x="1294.5" y="1423" class="mono" font-size="11" font-weight="700" fill="#a371f7" text-anchor="middle">RESTART</text><text x="1363" y="1415" class="ui" font-size="13" font-weight="500" fill="#c9d1d9" text-anchor="start"><tspan x="1363" dy="0">A stored active cycle requires explicit</tspan><tspan x="1363" dy="18">Start/resume.</tspan></text><rect x="1242" y="1452" width="105" height="25" rx="12" fill="#0f141b" stroke="#21262d" stroke-width="1"/><text x="1294.5" y="1470" class="mono" font-size="11" font-weight="700" fill="#a371f7" text-anchor="middle">AUDIT</text><text x="1363" y="1462" class="ui" font-size="13" font-weight="500" fill="#c9d1d9" text-anchor="start"><tspan x="1363" dy="0">Order IDs, fills, commissions, P&amp;L, and UTC</tspan><tspan x="1363" dy="18">events are retained.</tspan></text><rect x="54" y="1548" width="840" height="248" rx="12" fill="#161b22" stroke="#30363d" stroke-width="2" filter="url(#shadow)"/><text x="78" y="1570" class="mono" font-size="12" font-weight="650" fill="#8b949e" text-anchor="start" letter-spacing="1.2">V3.0.13 SETTINGS</text><text x="78" y="1602" class="ui" font-size="24" font-weight="700" fill="#f0f6fc" text-anchor="start">Default switchboard</text><line x1="78" y1="1618" x2="198" y2="1618" stroke="#3fb950" stroke-width="3"/><text x="78" y="1644" class="mono" font-size="13" font-weight="800" fill="#3fb950" text-anchor="start">ON</text><rect x="116" y="1627" width="96.6" height="27" rx="13" fill="#0f141b" stroke="#238636" stroke-width="1"/><text x="164.3" y="1646" class="mono" font-size="11" font-weight="700" fill="#3fb950" text-anchor="middle">ATR adaptive</text><rect x="221.6" y="1627" width="149.0" height="27" rx="13" fill="#0f141b" stroke="#238636" stroke-width="1"/><text x="296.1" y="1646" class="mono" font-size="11" font-weight="700" fill="#3fb950" text-anchor="middle">Adapt minimum profit</text><rect x="379.6" y="1627" width="181.75" height="27" rx="13" fill="#0f141b" stroke="#238636" stroke-width="1"/><text x="470.475" y="1646" class="mono" font-size="11" font-weight="700" fill="#3fb950" text-anchor="middle">Block BUY until ATR ready</text><rect x="570.35" y="1627" width="122.8" height="27" rx="13" fill="#0f141b" stroke="#238636" stroke-width="1"/><text x="631.75" y="1646" class="mono" font-size="11" font-weight="700" fill="#3fb950" text-anchor="middle">Stale-data guard</text><rect x="116" y="1663" width="188.29999999999998" height="27" rx="13" fill="#0f141b" stroke="#238636" stroke-width="1"/><text x="210.14999999999998" y="1682" class="mono" font-size="11" font-weight="700" fill="#3fb950" text-anchor="middle">Block delayed data in live</text><rect x="313.29999999999995" y="1663" width="103.14999999999999" height="27" rx="13" fill="#0f141b" stroke="#238636" stroke-width="1"/><text x="364.87499999999994" y="1682" class="mono" font-size="11" font-weight="700" fill="#3fb950" text-anchor="middle">What-if check</text><rect x="425.44999999999993" y="1663" width="149.0" height="27" rx="13" fill="#0f141b" stroke="#238636" stroke-width="1"/><text x="499.94999999999993" y="1682" class="mono" font-size="11" font-weight="700" fill="#3fb950" text-anchor="middle">Session timing guard</text><rect x="583.4499999999999" y="1663" width="92" height="27" rx="13" fill="#0f141b" stroke="#238636" stroke-width="1"/><text x="629.4499999999999" y="1682" class="mono" font-size="11" font-weight="700" fill="#3fb950" text-anchor="middle">Auto-repeat</text><rect x="684.4499999999999" y="1663" width="155.54999999999998" height="27" rx="13" fill="#0f141b" stroke="#238636" stroke-width="1"/><text x="762.2249999999999" y="1682" class="mono" font-size="11" font-weight="700" fill="#3fb950" text-anchor="middle">Reinvest positive P&amp;L</text><rect x="116" y="1698" width="92" height="25" rx="13" fill="#0f141b" stroke="#238636" stroke-width="1"/><text x="162.0" y="1716" class="mono" font-size="11" font-weight="700" fill="#3fb950" text-anchor="middle">RTH only</text><text x="78" y="1743" class="mono" font-size="13" font-weight="800" fill="#da3633" text-anchor="start">OFF</text><rect x="124" y="1725" width="115.5" height="27" rx="13" fill="#0f141b" stroke="#da3633" stroke-width="1"/><text x="181.75" y="1744" class="mono" font-size="11" font-weight="700" fill="#da3633" text-anchor="middle">Protective SELL</text><rect x="248.5" y="1725" width="180.5" height="27" rx="13" fill="#0f141b" stroke="#da3633" stroke-width="1"/><text x="338.75" y="1744" class="mono" font-size="11" font-weight="700" fill="#da3633" text-anchor="middle">ATR protective adaptation</text><rect x="438.0" y="1725" width="115.5" height="27" rx="13" fill="#0f141b" stroke="#da3633" stroke-width="1"/><text x="495.75" y="1744" class="mono" font-size="11" font-weight="700" fill="#da3633" text-anchor="middle">Slippage buffer</text><rect x="562.5" y="1725" width="122.0" height="27" rx="13" fill="#0f141b" stroke="#da3633" stroke-width="1"/><text x="623.5" y="1744" class="mono" font-size="11" font-weight="700" fill="#da3633" text-anchor="middle">Hard-risk master</text><rect x="693.5" y="1725" width="128.5" height="27" rx="13" fill="#0f141b" stroke="#da3633" stroke-width="1"/><text x="757.75" y="1744" class="mono" font-size="11" font-weight="700" fill="#da3633" text-anchor="middle">Volatility filter</text><text x="78" y="1779" class="ui" font-size="13" font-weight="500" fill="#8b949e" text-anchor="start">Manual 2% / 1% / 3% / 1% values are fallback settings; default ATR readiness rewrites the order-driving percentages.</text><rect x="918" y="1548" width="828" height="248" rx="12" fill="#161b22" stroke="#30363d" stroke-width="2" filter="url(#shadow)"/><text x="942" y="1570" class="mono" font-size="12" font-weight="650" fill="#8b949e" text-anchor="start" letter-spacing="1.2">WHAT THIS BOT IS — AND IS NOT</text><text x="942" y="1602" class="ui" font-size="24" font-weight="700" fill="#f0f6fc" text-anchor="start">Scope &amp; important limitations</text><line x1="942" y1="1618" x2="1062" y2="1618" stroke="#d29922" stroke-width="3"/><circle cx="946" cy="1646" r="4" fill="#1f6feb"/><text x="960" y="1651" class="ui" font-size="13.5" font-weight="500" fill="#c9d1d9" text-anchor="start">One operator-selected and qualified stock contract</text><circle cx="946" cy="1676" r="4" fill="#1f6feb"/><text x="960" y="1681" class="ui" font-size="13.5" font-weight="500" fill="#c9d1d9" text-anchor="start">Long-only, whole shares, one active cycle</text><circle cx="946" cy="1706" r="4" fill="#1f6feb"/><text x="960" y="1711" class="ui" font-size="13.5" font-weight="500" fill="#c9d1d9" text-anchor="start">Not a market scanner or security-selection engine</text><circle cx="946" cy="1736" r="4" fill="#1f6feb"/><text x="960" y="1735" class="ui" font-size="12.5" font-weight="500" fill="#c9d1d9" text-anchor="start"><tspan x="960" dy="0">Not 24/7: requires app, TWS/Gateway,</tspan><tspan x="960" dy="18">network and open RTH</tspan></text><circle cx="1344" cy="1646" r="4" fill="#d29922"/><text x="1358" y="1651" class="ui" font-size="12.5" font-weight="500" fill="#c9d1d9" text-anchor="start">No default protective stop-loss or time exit</text><circle cx="1344" cy="1676" r="4" fill="#d29922"/><text x="1358" y="1681" class="ui" font-size="12.5" font-weight="500" fill="#c9d1d9" text-anchor="start">Native trails trigger market-style execution</text><circle cx="1344" cy="1706" r="4" fill="#d29922"/><text x="1358" y="1711" class="ui" font-size="12.5" font-weight="500" fill="#c9d1d9" text-anchor="start">Stops and min-profit levels do not guarantee fills</text><circle cx="1344" cy="1736" r="4" fill="#d29922"/><text x="1358" y="1741" class="ui" font-size="12.5" font-weight="500" fill="#c9d1d9" text-anchor="start">IBKR is authoritative for accepted orders and fills</text><rect x="942" y="1766" width="780" height="20" rx="10" fill="#0f141b" stroke="#d29922" stroke-width="1"/><text x="1332" y="1781" class="mono" font-size="11" font-weight="700" fill="#d29922" text-anchor="middle">SOFTWARE BEHAVIOR OVERVIEW — NOT INVESTMENT ADVICE</text><line x1="54" y1="1830" x2="1746" y2="1830" stroke="#30363d" stroke-width="1"/><text x="54" y="1858" class="ui" font-size="13" font-weight="500" fill="#8b949e" text-anchor="start">BouncyBot v3.0.13 • source-aligned overview of StrategySettings, StrategyEngine, TradingController, IbAsyncTwsAdapter, and SQLite persistence</text><text x="1746" y="1858" class="mono" font-size="12" font-weight="700" fill="#1f6feb" text-anchor="end">SVG TEXT REMAINS EDITABLE</text></svg>